<svg xmlns="http://www.w3.org/2000/svg" xmlns:xlink="http://www.w3.org/1999/xlink" width="25.503999999999905" height="24.06933331250002" viewBox="0 0 25.503999999999905 24.06933331250002" fill="none"><path id="分组 1" fill-rule="evenodd" style="fill:#5D6D79" transform="translate(5.81756864903582e-14 -1.5898393712632242e-13)  rotate(0 12.752 12.03466665625)" opacity="1" d="M1.07 24.07L24.44 24.07C25.02 24.07 25.5 23.59 25.5 23C25.5 22.42 25.02 21.94 24.44 21.94L23.24 21.94L23.24 11.32C23.24 9.87 22.31 8.6 20.93 8.16L16.27 6.68L16.27 3.09C16.27 1.39 14.88 0 13.17 0L5.78 0C4.07 0 2.69 1.39 2.69 3.09L2.69 21.94L1.07 21.94C0.48 21.94 0 22.42 0 23C0 23.59 0.48 24.07 1.07 24.07Z M14.1413 21.9333L14.1413 3.09333C14.1413 2.56333 13.7113 2.13333 13.1813 2.13333L5.78133 2.13333C5.25133 2.13333 4.82133 2.56333 4.82133 3.09333L4.82133 21.9333L14.1413 21.9333Z M16.2667 21.9427L21.1067 21.9427L21.1067 11.3327C21.1067 10.8027 20.7767 10.3527 20.2867 10.1927L16.2667 8.92267L16.2667 21.9327L16.2667 21.9427Z " /></svg>